<svg width="445" height="45" viewBox="0 0 445 45" fill="none" xmlns="http://www.w3.org/2000/svg">
<path d="M13.3546 28.6751H119.655V36H2.67985V4.42248H119.164V11.6134H13.3546V16.2585H118.583V23.4941H13.3546V28.6751ZM122.897 20.3676H135.224V26.4419H122.897V20.3676ZM139.115 4.77979H150.995L172.747 24.432V4.77979H183.288V36.0447H172.747L149.611 15.3205V36.0447H139.115V4.77979ZM218.365 5.09244L234.98 35.9553H224.484L221.58 30.3277H199.293L196.39 35.9553H185.938L202.509 5.09244H218.365ZM202.911 23.3601H218.007L212.112 12.0154H208.762L202.911 23.3601ZM256.687 36.536C253.963 36.536 251.506 36.3573 249.228 35.9553C246.95 35.5534 245.03 35.0621 243.511 34.4368C241.948 33.7668 240.608 33.0075 239.402 32.1142C238.196 31.1763 237.258 30.283 236.588 29.345C235.918 28.4071 235.382 27.4245 234.936 26.3526C234.489 25.2806 234.176 24.298 234.042 23.4494C233.908 22.5561 233.864 21.7075 233.864 20.8589V19.6083C233.864 18.2684 233.998 16.9731 234.266 15.7672C234.534 14.5612 235.159 13.2213 236.097 11.7474C237.079 10.2735 238.33 8.97822 239.893 7.90628C241.457 6.83434 243.69 5.94106 246.593 5.22643C249.451 4.46714 252.846 4.10983 256.687 4.10983H258.563C262.359 4.10983 265.665 4.42248 268.568 5.04778C271.426 5.71774 273.659 6.47703 275.223 7.37031C276.786 8.30826 278.081 9.33553 279.064 10.5415C280.091 11.7474 280.716 12.8193 281.029 13.7573C281.297 14.6952 281.431 15.5885 281.431 16.4371V16.9284H270.086C269.997 16.5711 269.908 16.3031 269.774 16.0351C269.64 15.7672 269.282 15.3205 268.702 14.7399C268.121 14.1593 267.451 13.6679 266.647 13.266C265.843 12.864 264.637 12.5067 263.074 12.194C261.466 11.8814 259.68 11.7027 257.625 11.7027C255.168 11.7027 253.069 11.926 251.372 12.4174C249.63 12.864 248.335 13.4893 247.442 14.2932C246.593 15.1419 245.968 15.9905 245.61 16.8838C245.208 17.777 245.03 18.7597 245.03 19.8316V20.3229C245.03 21.3502 245.253 22.3328 245.655 23.2707C246.057 24.2087 246.727 25.102 247.62 25.9952C248.514 26.8885 249.809 27.6031 251.551 28.1391C253.293 28.6751 255.347 28.9431 257.714 28.9431C264.727 28.9431 268.836 27.1118 270.086 23.4941C270.131 23.4494 270.131 23.4047 270.131 23.3601H281.476V23.8067C281.476 24.7446 281.342 25.7273 281.029 26.7099C280.672 27.6925 280.002 28.7644 279.019 30.015C277.992 31.2209 276.697 32.2929 275.089 33.2308C273.525 34.1241 271.292 34.9281 268.434 35.598C265.575 36.2233 262.27 36.536 258.563 36.536H256.687ZM285.538 4.69046H321.493V11.7921H296.079V16.4371H320.912V23.5834H296.079V28.7198H321.984V36H285.538V4.69046ZM440.472 22.6454C441.589 23.8514 442.169 25.4146 442.169 27.3352V36H432.209V30.3723C432.209 28.4518 431.718 27.0225 430.691 26.1739C429.708 25.2806 428.011 24.834 425.599 24.834H336.583V36H326.713V4.51181H428.279C437.435 4.51181 442.035 7.23632 442.035 12.6853V13.1766C442.035 16.5265 440.07 18.8043 436.14 20.0996C437.926 20.5909 439.4 21.4395 440.472 22.6454ZM431.673 14.7399V14.6952C431.673 13.8019 431.361 13.0873 430.691 12.5067C430.065 11.9707 429.038 11.6581 427.698 11.6581H336.583V17.8664H427.698C429.038 17.8664 430.065 17.5537 430.691 17.0178C431.361 16.4371 431.673 15.6778 431.673 14.7399Z" fill="#11C5E3"/>
</svg>
